<!-- created by svgstack.com | Attribution is required. --><svg width="201" height="201" viewBox="0 0 201 201" fill="none" xmlns="http://www.w3.org/2000/svg"><g clip-path="url(#clip0_105_1297)"><path d="M2.17969 117.148L84.0481 199.016C42.2406 191.949 9.24658 158.955 2.17969 117.148Z" fill="#5E6AD2"/><path d="M0.919922 94.9213L106.274 200.275C112.539 199.94 118.652 199.029 124.559 197.594L3.60114 76.636C2.16579 82.5435 1.2547 88.6557 0.919922 94.9213Z" fill="#5E6AD2"/><path d="M8.84473 60.9132L140.282 192.35C145.069 190.296 149.664 187.879 154.031 185.133L16.0619 47.1638C13.3165 51.5313 10.8993 56.126 8.84473 60.9132Z" fill="#5E6AD2"/><path d="M24.9668 35.1023C43.319 13.7781 70.5065 0.275146 100.848 0.275146C156.116 0.275146 200.92 45.0789 200.92 100.347C200.92 130.689 187.417 157.876 166.093 176.228L24.9668 35.1023Z" fill="#5E6AD2"/></g><defs><clipPath id="clip0_105_1297"><rect width="200" height="200" fill="white" transform="translate(0.919922 0.275146)"/></clipPath></defs></svg> 