<svg viewBox="0 0 344 341" fill="none" xmlns="http://www.w3.org/2000/svg" width="16" height="16"><g clip-path="url(#clip0_sarvam_logo)"><path d="M342.9 147.76C342.27 146.62 341.61 145.47 340.83 144.21C335.67 135.65 329.53 127.73 322.58 120.67L322.47 120.56C321.64 119.72 320.95 119.04 320.32 118.4C315.38 113.61 309.99 109.16 304.25 105.2C304.07 105.09 303.9 104.97 303.76 104.86C303.33 104.57 302.93 104.28 302.5 104C302.35 103.88 302.18 103.8 302.04 103.68C302.04 103.54 302.04 103.39 302.04 103.25C302.04 103.05 302.04 102.85 302.04 102.65C302.04 102.45 302.04 102.25 302.04 102.04C301.92 95.24 301.23 88.44 300.06 81.87L299.91 81.06C299.77 80.29 299.63 79.54 299.48 78.83V78.71C297.36 68.41 294 58.42 289.44 48.98C288.92 47.86 288.32 46.68 287.63 45.36L286.94 44.04L285.54 43.52C284.27 43.04 282.98 42.58 281.72 42.17C277.07 40.57 272.28 39.25 267.55 38.21C262.73 37.15 257.79 36.38 252.83 35.89C251.82 35.77 250.76 35.69 249.64 35.6C242.24 35.06 234.72 35.14 227.29 35.92C226.86 35.95 226.4 36 225.97 36.06C225.88 35.95 225.8 35.83 225.68 35.75C221.09 30.38 216.04 25.38 210.7 20.91C209.87 20.22 209.04 19.53 208.26 18.9L208.21 18.84C199.91 12.24 190.82 6.64 181.15 2.25C180 1.74 178.77 1.19 177.39 0.62L176.04 0.04L174.66 0.53C173.6 0.9 172.2 1.39 170.85 1.94C161.58 5.52 152.71 10.17 144.56 15.77L143.24 16.69C142.78 17 142.35 17.32 141.95 17.64C135.58 22.23 129.61 27.45 124.19 33.13C117.13 31.93 109.96 31.33 102.84 31.33C101.81 31.33 100.72 31.33 99.63 31.38C89.01 31.61 78.42 33.19 68.12 36.06C66.86 36.41 65.54 36.81 64.19 37.24L62.81 37.7L62.07 38.93C61.41 40.02 60.75 41.2 60.03 42.46C55.18 51.24 51.36 60.6 48.67 70.33C48.38 71.39 48.12 72.43 47.86 73.46C46 80.92 44.79 88.61 44.31 96.36C38.08 100.04 32.11 104.23 26.63 108.85C25.8 109.54 24.99 110.22 24.16 110.94C16.27 117.92 9.21 125.9 3.24 134.62L3.16 134.74C2.35 135.88 1.64 136.97 0.98 138.04L0.2 139.27L0.43 140.73C0.66 142.17 0.92 143.49 1.15 144.78C3.1 154.74 6.26 164.5 10.5 173.74L10.56 173.85C11.02 174.83 11.48 175.78 11.94 176.72L12.6 178.07C15.78 184.36 19.54 190.44 23.73 196.13C21.26 203.07 19.37 210.28 18.14 217.48V217.54C17.96 218.6 17.79 219.63 17.62 220.66C16.1 230.97 15.84 241.44 16.87 251.83C17.02 253.18 17.16 254.56 17.33 255.85L17.53 257.32L18.65 258.29C19.71 259.21 20.75 260.07 21.78 260.9L21.92 261.02C29.9 267.45 38.65 272.9 48.01 277.26L48.35 277.44C48.72 277.61 49.07 277.78 49.47 277.95L50.96 278.61C57.79 281.6 64.91 284.01 72.17 285.76C74.78 292.82 78.02 299.65 81.81 306.08L82.21 306.74C82.64 307.46 83.07 308.17 83.5 308.89C88.93 317.62 95.38 325.68 102.73 332.86C103.76 333.86 104.76 334.81 105.68 335.64L106.77 336.67H108.27C109.61 336.67 110.99 336.67 112.34 336.67C117.13 336.59 121.98 336.21 126.72 335.58C131.48 334.95 136.3 334.03 141.06 332.83L142.96 332.34C143.99 332.05 144.99 331.79 146.03 331.48C153.14 329.38 160.14 326.66 166.83 323.36C166.97 323.44 167.12 323.53 167.26 323.58C167.38 323.64 167.52 323.73 167.63 323.79C174.03 327.35 180.72 330.39 187.55 332.8C188.06 332.97 188.55 333.14 189.07 333.34L190.62 333.86C200.29 337.02 210.33 339 220.52 339.77L222.55 339.92C223.21 339.95 223.9 340 224.59 340.03L226.08 340.09L227.23 339.14C228.44 338.17 229.41 337.33 230.33 336.53C237.56 330.22 244.1 323.1 249.76 315.32L250.88 313.74V313.68C251.51 312.82 252.11 311.96 252.68 311.07C254.98 307.6 257.1 304.07 259 300.54L259.71 299.16C260.86 296.95 261.98 294.65 263.04 292.27C263.13 292.1 263.21 291.9 263.3 291.73C263.39 291.56 263.44 291.38 263.53 291.21C263.62 291.21 263.67 291.21 263.76 291.18C263.85 291.18 263.9 291.18 263.99 291.15C264.19 291.13 264.42 291.07 264.62 291.04C265.14 290.95 265.62 290.84 266.11 290.75C272.71 289.4 279.23 287.54 285.45 285.21L286.94 284.64C287.46 284.44 287.95 284.24 288.46 284.04C297.93 280.22 306.92 275.28 315.21 269.34L316.87 268.14L319.65 265.98L319.91 264.58C320.06 263.92 320.17 263.26 320.29 262.57L320.63 260.56C322.18 250.57 322.55 240.41 321.75 230.37C321.66 229.22 321.55 228.04 321.46 227.15C321.06 223.36 320.49 219.52 319.71 215.7C319.11 212.71 318.39 209.7 317.59 206.72C317.53 206.52 317.48 206.34 317.42 206.14C317.36 205.94 317.3 205.77 317.25 205.57C317.16 205.22 317.04 204.88 316.96 204.54C317.25 204.19 317.53 203.85 317.82 203.5C317.93 203.36 318.08 203.19 318.19 203.04C318.31 202.9 318.45 202.73 318.57 202.58C322.38 197.79 325.85 192.71 328.92 187.46L329.67 186.17C330.19 185.25 330.7 184.3 331.22 183.35C336.07 174.28 339.86 164.61 342.41 154.6L342.9 152.62C343.04 152.07 343.16 151.52 343.27 150.98L343.67 149.17L342.96 147.88L342.9 147.76ZM290.93 109.54L291.88 110.02L291.96 110.11V110.37L291.88 110.97L291.54 114.01V114.33C290.93 121.48 289.7 128.56 287.86 135.4L287.37 137.17C287.03 138.41 286.63 139.73 286.14 141.22C285.28 143.86 284.33 146.47 283.27 149.03C275.9 142.46 267.78 136.74 259.14 131.98H259.08C258.62 131.69 258.16 131.43 257.73 131.2L256.9 130.77C256.9 130.77 256.76 130.69 256.7 130.66C256.64 130.63 256.58 130.6 256.53 130.57L254.49 129.54L254.69 127.39C254.81 126.18 254.89 125.21 254.95 124.29C255.7 114.73 255.41 105.17 254.12 95.85C257.48 96.48 260.8 97.28 264.05 98.2L264.65 98.37C266.14 98.8 267.37 99.2 268.58 99.58C275.27 101.76 281.84 104.63 288.12 108.07L290.39 109.22L290.93 109.51V109.54ZM257.22 183.61L250.24 190.7L254.95 202.61C258.19 210.99 260.49 219.66 261.78 228.36L261.87 228.96C261.92 229.39 261.98 229.85 262.07 230.34C261.46 230.57 260.89 230.77 260.32 230.94C252.02 233.7 243.36 235.53 234.61 236.42L233.89 236.48C233.4 236.54 232.86 236.59 232.28 236.62L221.21 237.4L218.16 247.04C217.91 247.82 217.62 248.68 217.27 249.71L216.93 250.69C214.15 258.61 210.56 266.21 206.29 273.3L206.08 273.65C205.74 274.25 205.34 274.88 204.88 275.57L203.36 274.97C194.98 271.67 186.95 267.39 179.54 262.31C179.14 262.05 178.8 261.79 178.42 261.53L177.42 260.85L168.9 254.65L160.35 260.24C159.71 260.67 159 261.1 158.08 261.68C150.56 266.21 142.61 269.92 134.41 272.7H134.32C133.54 272.99 132.74 273.27 131.97 273.5C131.79 273.22 131.65 272.93 131.48 272.64L131.11 271.92C126.89 264.12 123.53 255.77 121.09 247.07L120.95 246.58C120.83 246.15 120.69 245.61 120.52 244.97L117.91 234.38L110.27 233.44C109.01 233.29 107.75 233.12 106.49 232.95C106 232.89 105.51 232.81 105.02 232.75C100.69 232.09 96.36 231.14 92.11 229.99C88.06 228.9 84.02 227.58 80.14 226.09L79.54 225.86C78.85 225.6 78.16 225.31 77.45 225.03C77.56 224.4 77.71 223.71 77.88 222.9L78.25 221.24C80.03 213.2 82.7 205.31 86.14 197.73C86.31 197.33 86.63 196.7 86.89 196.15L86.95 196.04C87.63 194.58 88.18 193.11 88.67 191.82L91.22 185.02L86.2 179.94L84.91 178.59C84.25 177.87 83.65 177.21 83.07 176.52C80.12 173.11 77.33 169.55 74.78 165.9C72.4 162.46 70.19 158.93 68.27 155.4L67.78 154.48C67.52 153.99 67.26 153.51 67 153.02C67 152.96 66.95 152.9 66.92 152.85L67.2 152.62L69.04 151.15C75.38 146.19 82.3 141.85 89.61 138.24L91.36 137.4C92.17 137 92.89 136.69 93.6 136.37L102.47 132.44V122.77C102.47 122.51 102.47 122.28 102.47 122.08V121.27C102.41 120.64 102.38 120.1 102.38 119.58V119.27C102.21 110.74 102.93 102.19 104.54 93.89L104.97 91.77C105.02 91.43 105.11 91.08 105.2 90.74C106.08 90.74 107.03 90.77 108.18 90.82L109.82 90.88C117.76 91.31 125.77 92.54 133.6 94.55C134.61 94.81 135.44 95.04 136.19 95.24L146.17 98.2L152.89 89.13C152.89 89.13 153.11 88.84 153.23 88.67L154.23 87.46C159.6 80.86 165.63 74.84 172.11 69.58L173.6 68.41C173.86 68.18 174.15 67.98 174.41 67.78L174.61 67.95C175.18 68.44 175.75 68.95 176.41 69.56L176.67 69.78C182.96 75.5 188.67 81.93 193.69 88.96L194.23 89.7L194.29 89.76C194.61 90.19 194.92 90.65 195.24 91.14L200.78 99.52L210.59 97.48C211.02 97.39 211.45 97.31 211.85 97.19C212.4 97.08 212.97 96.96 213.57 96.85C222.67 95.07 231.97 94.32 240.98 94.64H241.21C241.52 94.64 241.84 94.64 242.15 94.67C242.3 95.44 242.41 96.33 242.58 97.39C243.76 105.89 244.02 114.62 243.33 123.31V123.77L243.3 123.86C243.27 124.49 243.19 125.24 243.1 126.18L242.1 136.34L251.02 140.82C251.02 140.82 251.28 140.96 251.42 141.05L253.6 142.23C260.92 146.24 267.83 151.07 274.18 156.52L275.75 157.93C276.13 158.24 276.47 158.56 276.82 158.87C276.47 159.48 276.07 160.11 275.61 160.88C269.04 171.59 260.32 180.57 259.34 181.57C258.51 182.44 257.82 183.1 257.39 183.53L257.3 183.61H257.22ZM90.65 119.58V119.67C90.65 120.38 90.65 121.19 90.7 122.11V122.25C90.7 122.25 90.7 122.28 90.7 122.37C90.7 122.39 90.7 122.45 90.7 122.54C90.7 122.62 90.7 122.71 90.7 122.82V124.89L88.81 125.72C87.95 126.1 87.06 126.53 86.08 126.99L84.39 127.79C76.79 131.55 69.56 136.03 62.9 141.11C62.07 138.55 61.29 135.94 60.63 133.33L60.52 132.87C60.17 131.49 59.86 130.09 59.57 128.68C58.14 121.79 57.33 114.7 57.19 107.58L57.02 103.31L60.83 101.56H60.89C67.83 98.23 75.12 95.62 82.61 93.72C83.96 93.38 85.34 93.06 86.77 92.77C88.84 92.34 90.91 91.94 92.97 91.63C91.19 100.78 90.42 110.14 90.62 119.52L90.65 119.58ZM248.75 47.23C249.76 47.31 250.67 47.37 251.56 47.48H251.65C256.15 47.94 260.66 48.63 265.05 49.61C269.35 50.53 273.69 51.76 277.93 53.2H278.02C278.22 53.28 278.39 53.37 278.59 53.43C278.68 53.63 278.77 53.83 278.88 54.06C282.98 62.55 286.03 71.56 287.95 80.83L288.01 81.18C288.18 82.07 288.35 82.96 288.52 83.85L288.95 86.43C289.44 89.53 289.79 92.72 290.01 95.87C284.25 92.95 278.28 90.48 272.22 88.47C270.88 88.01 269.44 87.58 267.75 87.09L267.29 86.95H267.2C262.61 85.63 257.9 84.57 253.2 83.79C252.08 79.89 250.73 75.96 249.18 72.11V72.02C248.61 70.7 248.04 69.27 247.32 67.66C244.13 60.49 240.26 53.54 235.78 47C240.12 46.82 244.45 46.91 248.75 47.23ZM222.5 48.4L222.55 48.46H222.64L224.79 51.67L224.96 51.9C229.56 58.36 233.46 65.22 236.61 72.37V72.45C237.19 73.66 237.65 74.75 238.05 75.78L238.28 76.33C239.14 78.54 239.97 80.75 240.69 82.99C230.9 82.7 220.98 83.53 211.25 85.43C210.56 85.57 209.87 85.71 209.18 85.86C208.87 85.94 208.52 86 208.18 86.09L206.08 86.52L204.91 84.74C204.31 83.85 203.76 83.04 203.19 82.27V82.21C197.79 74.69 191.65 67.75 184.91 61.58C187.43 60.2 190.02 58.88 192.6 57.7L194.49 56.87C195.61 56.38 196.84 55.86 198.42 55.23L198.97 55.03C205.25 52.59 211.79 50.67 218.45 49.35L222.55 48.43L222.5 48.4ZM148.72 27.08L148.78 27.02C149.13 26.76 149.47 26.5 149.84 26.27L151.13 25.38C158.54 20.3 166.57 16.09 175.01 12.81H175.09C175.3 12.7 175.47 12.64 175.67 12.56C175.87 12.64 176.1 12.76 176.3 12.84C184.99 16.8 193.2 21.8 200.69 27.74L200.86 27.88C201.67 28.54 202.47 29.17 203.16 29.78C206.43 32.53 209.58 35.49 212.57 38.62C206.26 40.05 200.06 41.97 194.09 44.36L193.98 44.41C192.31 45.07 190.96 45.65 189.73 46.19L187.72 47.08L187.4 47.23C183.56 49.01 179.71 51.01 176.04 53.2C172.68 50.96 169.18 48.83 165.63 46.91L165.34 46.74C164.08 46.08 162.73 45.36 161.12 44.56L161.01 44.5C153.66 40.91 145.91 38.01 137.96 35.86C141.38 32.7 144.97 29.78 148.72 27.05V27.08ZM127.2 49.15L129.81 45.76L133.72 46.88L133.92 46.94C141.52 48.92 148.93 51.65 155.93 55.09L156.53 55.38C157.25 55.75 157.94 56.09 158.57 56.41L159.77 57.07C161.61 58.05 163.42 59.08 165.19 60.17L164.74 60.54C157.45 66.43 150.7 73.17 144.76 80.55L144.05 81.41C143.82 81.7 143.62 81.95 143.42 82.21L141.52 84.74L139.4 84.11C138.42 83.82 137.48 83.56 136.44 83.3C127.84 81.09 119.03 79.74 110.3 79.28H109.7C110.88 76.24 112.23 73.26 113.66 70.33C114.29 69.04 114.95 67.75 115.64 66.48L115.78 66.23C119.05 60.23 122.9 54.49 127.18 49.15H127.2ZM59.17 76.24C59.4 75.38 59.63 74.38 59.92 73.4C62.35 64.56 65.83 56.07 70.25 48.06L70.59 47.46C70.82 47.4 71.05 47.34 71.25 47.25C80.6 44.64 90.22 43.21 99.86 43.01H100.06C100.98 42.98 101.95 42.95 102.81 42.95C107.4 42.95 112 43.24 116.59 43.78C112.43 49.18 108.7 54.95 105.45 60.92V60.97C104.68 62.35 103.96 63.76 103.3 65.11C101.01 69.7 99 74.46 97.33 79.26C97.33 79.26 97.33 79.28 97.33 79.31C96.93 79.34 96.53 79.4 96.13 79.46C92.23 79.92 88.35 80.55 84.51 81.38C82.93 81.7 81.38 82.07 79.89 82.44C71.91 84.45 64.08 87.23 56.62 90.74C57.19 85.83 58.08 80.95 59.28 76.21L59.17 76.24ZM23.04 172.79L22.41 171.5C22.1 170.87 21.78 170.24 21.49 169.58L21.18 168.89C17.3 160.48 14.41 151.58 12.63 142.43C12.6 142.23 12.54 142 12.48 141.77L13.89 139.73C19.11 132.35 25.14 125.61 31.85 119.7C32.63 119.01 33.37 118.38 34.12 117.74C37.73 114.7 41.58 111.86 45.6 109.25C45.86 116.62 46.72 123.97 48.21 131.12C48.52 132.64 48.87 134.19 49.24 135.65V135.71C50.39 140.27 51.77 144.78 53.37 149.17C53.43 149.34 53.52 149.54 53.57 149.72C53.6 149.8 53.66 149.92 53.69 150.03C53.57 150.15 53.46 150.26 53.34 150.41C53.23 150.55 53.09 150.69 52.94 150.84C50.07 153.85 47.32 157.09 44.71 160.48L43.3 162.35C42.81 162.98 42.35 163.61 41.9 164.27C37.33 170.67 33.32 177.53 29.99 184.65C27.43 180.83 25.11 176.87 23.04 172.79ZM55.61 267.88L54.21 267.25C53.89 267.1 53.6 266.99 53.29 266.82L52.91 266.64C44.39 262.65 36.36 257.63 29.1 251.78L28.58 251.35L28.5 250.63C27.55 241.19 27.78 231.66 29.16 222.3V222.21C29.3 221.21 29.47 220.21 29.61 219.34V219.12C30.45 214.58 31.54 210.05 32.89 205.6C38.05 211.45 43.79 216.82 49.9 221.61L51.8 223.05C52.43 223.54 53.06 223.99 53.72 224.45C57.22 226.98 60.89 229.36 64.65 231.54C64.99 231.74 65.37 231.94 65.71 232.15C65.71 232.26 65.71 232.4 65.71 232.52C65.42 237.14 65.6 246.47C65.65 247.96 65.77 249.54 65.88 251.15C66.49 258.44 67.72 265.73 69.56 272.87C64.82 271.49 60.15 269.8 55.61 267.82V267.88ZM75.53 192.94C71.74 201.26 68.84 209.96 66.86 218.77L66.77 219.23C64.65 217.91 62.58 216.5 60.58 215.04C59.94 214.58 59.4 214.18 58.88 213.81L57.07 212.43C51.36 207.98 46.06 202.93 41.24 197.47L38.37 194.32L40.12 190.64L40.2 190.47C43.3 183.67 47.06 177.15 51.39 171.1C51.77 170.58 52.2 169.98 52.6 169.41L53.98 167.6C55.44 165.7 56.96 163.87 58.54 162.09C60.55 165.67 62.78 169.26 65.2 172.71C67.98 176.7 71.05 180.63 74.29 184.33C74.98 185.13 75.67 185.88 76.36 186.63L77.36 187.69L77.68 188C77.28 189.09 76.85 190.21 76.39 191.19C76.1 191.79 75.75 192.51 75.55 192.97L75.53 192.94ZM82.44 275.94L81.52 272.38L81.38 271.81C79.46 264.81 78.16 257.57 77.56 250.37V250.31C77.45 248.82 77.36 247.36 77.28 246.01C77.16 243.2 77.13 240.35 77.22 237.54C81.12 239 85.11 240.3 89.13 241.39C93.77 242.65 98.57 243.65 103.33 244.4C103.85 244.49 104.36 244.54 104.91 244.63C106.14 244.8 107.35 244.97 108.55 245.12L109.16 247.59C109.16 247.59 109.16 247.7 109.18 247.73L109.24 247.96C109.44 248.73 109.61 249.45 109.84 250.2C112.43 259.47 115.98 268.42 120.43 276.77C118.08 277.12 115.73 277.35 113.34 277.55C111.82 277.66 110.45 277.75 109.04 277.81C107.49 277.87 105.88 277.89 104.31 277.89C98.45 277.89 92.51 277.44 86.66 276.55L82.44 276V275.94ZM142.64 320.23C141.75 320.49 140.83 320.74 139.97 320.97L138.14 321.46C133.83 322.55 129.44 323.38 125.11 323.93C120.81 324.5 116.39 324.85 112.02 324.93C111.8 324.93 111.57 324.93 111.34 324.93C111.16 324.79 111.02 324.62 110.82 324.45C104.16 317.93 98.28 310.61 93.34 302.69C92.94 302.06 92.57 301.43 92.2 300.8L91.82 300.17C89.56 296.32 87.52 292.3 85.68 288.17C93.57 289.32 101.61 289.75 109.5 289.43C110.99 289.37 112.57 289.29 114.26 289.14C118.74 288.8 123.27 288.2 127.75 287.37C130.62 291.3 133.72 295.08 136.99 298.59C138.08 299.76 139.17 300.91 140.23 301.97C145.08 306.85 150.33 311.36 155.9 315.41C151.57 317.27 147.12 318.88 142.58 320.2L142.64 320.23ZM172.05 308C170.91 308.72 169.79 309.46 168.7 310.15L165.45 307.8L165.22 307.63C159.26 303.52 153.66 298.85 148.55 293.68C147.58 292.7 146.6 291.7 145.63 290.61C143.47 288.28 141.41 285.84 139.43 283.32C147.98 280.33 156.3 276.4 164.16 271.64C165.05 271.09 165.88 270.58 166.74 270.03L168.55 268.82L170.39 270.17C170.56 270.29 170.7 270.4 170.88 270.52H170.91C171.54 271.01 172.17 271.44 172.86 271.92C180.92 277.46 189.64 282.11 198.77 285.73C197.19 287.51 195.55 289.23 193.89 290.9L191.97 292.76C191.45 293.25 190.93 293.74 190.39 294.22C184.82 299.31 178.71 303.9 172.23 307.83L172 307.97L172.05 308ZM249.3 293.71L248.61 295C246.89 298.19 244.96 301.4 242.87 304.56C242.3 305.39 241.72 306.22 241.21 307L240.2 308.43C235.07 315.49 229.13 321.98 222.55 327.69C222.38 327.83 222.24 327.98 222.07 328.12L221.29 328.06C212.11 327.35 202.99 325.57 194.23 322.72L192.71 322.21C192.28 322.06 191.85 321.92 191.39 321.75C187.49 320.37 183.62 318.76 179.86 316.96C186.43 312.82 192.66 308.12 198.34 302.89C198.91 302.35 199.48 301.83 200.06 301.29L201.78 299.65C204.91 296.58 207.92 293.25 210.79 289.78C215.35 290.9 220.06 291.79 224.76 292.42L227.06 292.7C227.83 292.79 228.61 292.88 229.38 292.93C236.01 293.56 242.81 293.65 249.53 293.25C249.44 293.42 249.35 293.59 249.27 293.77L249.3 293.71ZM263.85 248.76L263.67 250.69C263.53 252.12 263.36 253.53 263.19 254.88C262.18 262.34 260.43 269.71 258.05 276.8L256.93 280.48L256.84 280.79L256.76 280.91L255.15 281.02L252.86 281.17H252.54C245.22 281.88 237.79 281.88 230.56 281.17H230.1C229.5 281.08 228.98 281.02 228.52 280.96L226.28 280.71C223.01 280.28 219.77 279.7 216.56 278.98C221.38 270.98 225.37 262.4 228.41 253.47V253.38C228.75 252.44 229.07 251.49 229.38 250.51L230.02 248.48L232.28 248.3C232.28 248.3 232.51 248.3 232.57 248.3H232.8C233.63 248.22 234.43 248.16 235.15 248.07H235.24C245.08 247.13 254.78 245.06 264.05 241.99C264.1 241.99 264.16 241.96 264.22 241.93C264.16 244.23 264.05 246.5 263.87 248.73L263.85 248.76ZM265.85 198.34L263.93 193.49L265.45 191.94C265.88 191.51 266.66 190.76 267.6 189.78C269.35 188 278.42 178.56 285.51 167.02C285.57 166.94 285.62 166.85 285.68 166.77C287.4 168.89 289.07 171.1 290.62 173.31L291.62 174.77C292.45 175.98 293.2 177.13 293.92 178.27L294.78 179.65C298.28 185.45 301.32 191.59 303.82 197.96L304.94 200.57L305.17 201.12L305.39 201.67L305.48 201.87C305.48 201.87 305.42 201.92 305.39 201.95L305.11 202.21L304.68 202.61L304.25 203.04L302.64 204.56L302.35 204.82C297.07 210.16 291.25 215.04 285.05 219.29C283.9 220.06 282.73 220.87 281.49 221.61C278.85 223.28 276.1 224.88 273.29 226.32C271.85 216.82 269.35 207.38 265.83 198.25L265.85 198.34ZM309.07 258.06L308.87 259.38L308.26 259.81C300.75 265.18 292.57 269.69 283.99 273.13H283.9C283.47 273.36 283.1 273.5 282.73 273.65L281.26 274.19C277.62 275.57 273.86 276.75 270.04 277.75C272.22 270.83 273.8 263.69 274.78 256.48C274.98 254.96 275.18 253.38 275.32 251.78L275.5 249.77C275.81 245.98 275.95 242.1 275.9 238.23C279.94 236.22 283.96 233.98 287.75 231.57C289.07 230.74 290.39 229.88 291.65 228.99C297.33 225.08 302.73 220.72 307.72 215.96C307.86 216.59 307.98 217.22 308.12 217.85C308.81 221.35 309.35 224.86 309.7 228.3C309.78 228.99 309.87 229.88 309.93 230.71V231.23C310.7 240.15 310.39 249.16 309.04 258.03L309.07 258.06ZM331.02 151.61C328.67 160.71 325.25 169.49 320.86 177.7C320.4 178.53 320.03 179.25 319.68 179.85L318.74 181.49C317.02 184.42 315.18 187.26 313.2 190.04C310.53 183.81 307.4 177.79 303.85 172.1L303.7 171.87C302.98 170.73 302.21 169.55 301.38 168.29L301.29 168.14C298.65 164.27 295.75 160.48 292.68 156.83C294.4 152.93 295.95 148.88 297.27 144.81C297.82 143.17 298.25 141.71 298.65 140.33L299.17 138.47C300.89 132.01 302.15 125.35 302.87 118.66C306.14 121.22 309.27 123.94 312.25 126.81C312.83 127.39 313.46 128.02 314.26 128.82L315.52 130.11C321.32 136.2 326.51 142.97 330.88 150.23C330.99 150.43 331.13 150.64 331.25 150.84L331.08 151.58L331.02 151.61Z" fill="#ffffff"></path><path fill-rule="evenodd" clip-rule="evenodd" d="M183.76 181.87C180.07 185.56 176.11 188.81 171.94 191.63C167.77 188.81 163.81 185.56 160.12 181.87C156.43 178.18 153.18 174.22 150.36 170.05C153.18 165.88 156.43 161.92 160.12 158.23C163.81 154.54 167.77 151.29 171.94 148.48C176.11 151.29 180.07 154.54 183.76 158.23C187.45 161.92 190.7 165.88 193.51 170.05C190.7 174.22 187.45 178.18 183.76 181.87Z" fill="#ffffff"></path></g><defs><clipPath id="clip0_sarvam_logo"><rect width="343.47" height="340.018" transform="translate(0.21 0.04)"></rect></clipPath></defs></svg>
