<svg version="1.2" xmlns="http://www.w3.org/2000/svg" viewBox="0 0 1079 1000" width="1079" height="1000">
	<title>yahoo_design_03-1500x1000-svg</title>
	<style>
		.s0 { fill: #6001d1 } 
	</style>
	<path id="Layer" class="s0" d="m847 0h231.1q-92.6 223.5-185.1 447c-7.3 17.4-14.2 35.1-21.9 52.4-76.8 0-153.7 0.1-230.6-0.1 2-6 4.7-11.8 7.1-17.7 66.5-160.5 132.8-321.1 199.4-481.6zm-846.9 244.2c69.3-0.1 138.6 0 207.9-0.1 1.3 0.2 3.1-0.3 3.7 1.3 2 4.1 3.3 8.5 5.1 12.8 39.1 100.1 78.3 200.3 117.4 300.4 1.1 2.9 2.1 5.8 3.8 8.3 42.4-107.6 84.8-215.1 127.3-322.6 68.5-0.2 137.1-0.1 205.6-0.1-2.6 7.2-5.8 14.1-8.6 21.2-61.2 147.4-122.3 294.9-183.5 442.4-40.4 97.4-80.9 194.8-121.1 292.2h-206.9c27.7-65.7 55.4-131.3 83.2-197 1-1.9 1.1-4.2 0.1-6.1-78-184.2-156.1-368.4-234-552.7zm689.2 304.1c7.8-0.9 15.6-0.8 23.3 0.1 26.8 2 53 12.9 73.1 30.9 16.4 14.5 28.6 33.7 35.3 54.5 12.7 39.1 6 83.9-18 117.3-11.7 16.5-27.4 30.2-45.5 39.5-40.2 21.1-91.7 19.7-130.1-5-21.1-13.4-37.8-33.4-47.5-56.5-13.4-31.6-13.4-68.5-0.2-100.2 12.7-31.7 38.5-58 70.1-71 12.6-5.3 26-8.6 39.5-9.6z"/>
</svg>